<svg width="274" height="70" viewBox="0 0 274 70" fill="none" xmlns="http://www.w3.org/2000/svg">
<line x1="32" y1="46.8796" x2="242" y2="46.8796" stroke="white" stroke-opacity="0.64"/>
<path d="M0.84375 10.2871V9.25C3.16406 9.37891 5.68945 9.44336 8.41992 9.44336L16.2598 9.33789C18.9199 9.33789 21.041 9.72461 22.623 10.498C24.2168 11.2598 25.4531 12.4785 26.332 14.1543C27.2109 15.8301 27.6504 17.7812 27.6504 20.0078C27.6504 24.1094 26.2559 27.4961 23.4668 30.168C20.6777 32.8398 16.9336 34.1758 12.2344 34.1758C11.9648 34.1758 10.8926 34.1406 9.01758 34.0703C7.14258 34.0117 6.04102 33.9824 5.71289 33.9824C4.57617 33.9824 2.95312 34.0527 0.84375 34.1934V33.1562C2.75391 32.793 3.81445 32.5762 4.02539 32.5059C4.24805 32.4355 4.40625 32.3535 4.5 32.2598C4.59375 32.166 4.6582 32.0371 4.69336 31.873C4.75195 31.627 4.79297 30.6309 4.81641 28.8848C4.88672 25.0762 4.92188 22.3047 4.92188 20.5703L4.81641 12.8711L4.83398 12.2734C4.83398 11.6875 4.66406 11.3125 4.32422 11.1484C4.125 11.0312 2.96484 10.7441 0.84375 10.2871ZM8.34961 32.1016C10.248 32.3359 11.8418 32.4531 13.1309 32.4531C15.1348 32.4531 16.7871 32.1309 18.0879 31.4863C19.9512 30.5371 21.3633 29.1543 22.3242 27.3379C23.2969 25.5215 23.7832 23.2891 23.7832 20.6406C23.7832 19.2578 23.6191 17.998 23.291 16.8613C22.9746 15.7129 22.5469 14.7988 22.0078 14.1191C21.2227 13.1113 20.1973 12.3438 18.9316 11.8164C17.666 11.2773 15.8379 11.0078 13.4473 11.0078C12.0059 11.0078 10.3066 11.0957 8.34961 11.2715C8.2793 14.3535 8.24414 17.8457 8.24414 21.748C8.24414 25.873 8.2793 29.3242 8.34961 32.1016ZM30.9727 21.8887C30.9727 18.0449 32.209 14.8926 34.6816 12.4316C37.166 9.95898 40.3535 8.72266 44.2441 8.72266C47.8652 8.72266 50.748 9.8125 52.8926 11.9922C55.0371 14.1719 56.1094 17.1719 56.1094 20.9922C56.1094 25.2344 54.9023 28.5859 52.4883 31.0469C50.0742 33.4961 46.8984 34.7207 42.9609 34.7207C39.2695 34.7207 36.3457 33.6074 34.1895 31.3809C32.0449 29.1543 30.9727 25.9902 30.9727 21.8887ZM34.8223 21.3613C34.8223 25.2285 35.666 28.1348 37.3535 30.0801C39.0527 32.0137 41.1973 32.9805 43.7871 32.9805C45.498 32.9805 47.0156 32.5293 48.3398 31.627C49.6641 30.7246 50.666 29.4062 51.3457 27.6719C52.0254 25.9258 52.3652 23.998 52.3652 21.8887C52.3652 19.2402 51.9316 17.043 51.0645 15.2969C50.1973 13.5508 49.125 12.3027 47.8477 11.5527C46.5703 10.791 45.1348 10.4102 43.541 10.4102C41.7949 10.4102 40.2305 10.873 38.8477 11.7988C37.4648 12.7129 36.4453 14.043 35.7891 15.7891C35.1445 17.5234 34.8223 19.3809 34.8223 21.3613ZM81.8086 29.9219L82.5469 31.2578C80.6602 32.4414 78.8496 33.3145 77.1152 33.877C75.3809 34.4395 73.5879 34.7207 71.7363 34.7207C69.3809 34.7207 67.2422 34.1875 65.3203 33.1211C63.3984 32.043 61.9395 30.5254 60.9434 28.5684C59.959 26.5996 59.4668 24.4199 59.4668 22.0293C59.4668 18.127 60.7383 14.9336 63.2812 12.4492C65.8359 9.96484 69.2109 8.72266 73.4062 8.72266C75.9844 8.72266 78.8555 9.25 82.0195 10.3047C81.9961 11.3359 81.9844 12.1094 81.9844 12.625C81.9844 14.125 82.0723 15.7012 82.248 17.3535H80.7715C80.3379 15.3027 79.875 13.8906 79.3828 13.1172C78.8906 12.3438 78.0938 11.7285 76.9922 11.2715C75.8906 10.8027 74.5312 10.5684 72.9141 10.5684C69.5156 10.5684 66.9551 11.7754 65.2324 14.1895C63.8965 16.0762 63.2285 18.4434 63.2285 21.291C63.2285 24.6895 64.166 27.373 66.041 29.3418C67.9277 31.2988 70.3945 32.2773 73.4414 32.2773C74.7539 32.2773 76.0312 32.1074 77.2734 31.7676C78.5156 31.4277 80.0273 30.8125 81.8086 29.9219ZM91.7227 20.2539H95.9766C97.6172 20.2539 98.584 20.2129 98.877 20.1309C99.1699 20.0371 99.4043 19.8555 99.5801 19.5859C99.7676 19.3164 99.9961 18.5371 100.266 17.248C100.301 17.1191 100.354 16.9199 100.424 16.6504H101.584C101.455 18.584 101.391 20.0723 101.391 21.1152C101.391 22.1934 101.455 23.6699 101.584 25.5449H100.424C100.084 23.8457 99.873 22.8965 99.791 22.6973C99.6738 22.416 99.4688 22.2168 99.1758 22.0996C98.8828 21.9707 98.0098 21.9062 96.5566 21.9062H91.7402L91.8281 32.2422H99.1934L99.8438 32.2246C100.852 32.2246 101.484 32.1836 101.742 32.1016C102.188 31.9492 102.58 31.6973 102.92 31.3457C103.26 30.9824 103.887 29.9688 104.801 28.3047C104.895 28.1406 105.035 27.9004 105.223 27.584H106.436C106.295 27.959 105.568 30.1621 104.256 34.1934C99.9902 34.0645 96.0938 34 92.5664 34C90.1055 34 87.3867 34.0645 84.4102 34.1934V33.1562L87.2578 32.541C87.7148 32.4121 87.9961 32.2832 88.1016 32.1543C88.2773 31.9316 88.3652 31.4688 88.3652 30.7656V30.4492L88.4531 26.3184C88.4648 25.5215 88.4707 23.957 88.4707 21.625C88.4707 18.2383 88.459 15.7598 88.4355 14.1895C88.4121 12.6074 88.3535 11.7109 88.2598 11.5C88.1895 11.3594 88.0781 11.248 87.9258 11.166C87.7852 11.0723 87.2461 10.9199 86.3086 10.709L84.4102 10.2871V9.25C86.6133 9.37891 89.2441 9.44336 92.3027 9.44336C93.9785 9.44336 97.9629 9.37891 104.256 9.25C104.279 11.2773 104.42 13.2812 104.678 15.2617H103.447C102.979 13.668 102.598 12.6074 102.305 12.0801C102.105 11.7168 101.859 11.4766 101.566 11.3594C101.18 11.207 100.324 11.1309 99 11.1309H91.8984L91.7754 16.791L91.7227 20.2539ZM117.738 10.2871V9.25C120.059 9.37891 122.584 9.44336 125.314 9.44336L133.154 9.33789C135.814 9.33789 137.936 9.72461 139.518 10.498C141.111 11.2598 142.348 12.4785 143.227 14.1543C144.105 15.8301 144.545 17.7812 144.545 20.0078C144.545 24.1094 143.15 27.4961 140.361 30.168C137.572 32.8398 133.828 34.1758 129.129 34.1758C128.859 34.1758 127.787 34.1406 125.912 34.0703C124.037 34.0117 122.936 33.9824 122.607 33.9824C121.471 33.9824 119.848 34.0527 117.738 34.1934V33.1562C119.648 32.793 120.709 32.5762 120.92 32.5059C121.143 32.4355 121.301 32.3535 121.395 32.2598C121.488 32.166 121.553 32.0371 121.588 31.873C121.646 31.627 121.688 30.6309 121.711 28.8848C121.781 25.0762 121.816 22.3047 121.816 20.5703L121.711 12.8711L121.729 12.2734C121.729 11.6875 121.559 11.3125 121.219 11.1484C121.02 11.0312 119.859 10.7441 117.738 10.2871ZM125.244 32.1016C127.143 32.3359 128.736 32.4531 130.025 32.4531C132.029 32.4531 133.682 32.1309 134.982 31.4863C136.846 30.5371 138.258 29.1543 139.219 27.3379C140.191 25.5215 140.678 23.2891 140.678 20.6406C140.678 19.2578 140.514 17.998 140.186 16.8613C139.869 15.7129 139.441 14.7988 138.902 14.1191C138.117 13.1113 137.092 12.3438 135.826 11.8164C134.561 11.2773 132.732 11.0078 130.342 11.0078C128.9 11.0078 127.201 11.0957 125.244 11.2715C125.174 14.3535 125.139 17.8457 125.139 21.748C125.139 25.873 125.174 29.3242 125.244 32.1016ZM154.195 20.2539H158.449C160.09 20.2539 161.057 20.2129 161.35 20.1309C161.643 20.0371 161.877 19.8555 162.053 19.5859C162.24 19.3164 162.469 18.5371 162.738 17.248C162.773 17.1191 162.826 16.9199 162.896 16.6504H164.057C163.928 18.584 163.863 20.0723 163.863 21.1152C163.863 22.1934 163.928 23.6699 164.057 25.5449H162.896C162.557 23.8457 162.346 22.8965 162.264 22.6973C162.146 22.416 161.941 22.2168 161.648 22.0996C161.355 21.9707 160.482 21.9062 159.029 21.9062H154.213L154.301 32.2422H161.666L162.316 32.2246C163.324 32.2246 163.957 32.1836 164.215 32.1016C164.66 31.9492 165.053 31.6973 165.393 31.3457C165.732 30.9824 166.359 29.9688 167.273 28.3047C167.367 28.1406 167.508 27.9004 167.695 27.584H168.908C168.768 27.959 168.041 30.1621 166.729 34.1934C162.463 34.0645 158.566 34 155.039 34C152.578 34 149.859 34.0645 146.883 34.1934V33.1562L149.73 32.541C150.188 32.4121 150.469 32.2832 150.574 32.1543C150.75 31.9316 150.838 31.4688 150.838 30.7656V30.4492L150.926 26.3184C150.938 25.5215 150.943 23.957 150.943 21.625C150.943 18.2383 150.932 15.7598 150.908 14.1895C150.885 12.6074 150.826 11.7109 150.732 11.5C150.662 11.3594 150.551 11.248 150.398 11.166C150.258 11.0723 149.719 10.9199 148.781 10.709L146.883 10.2871V9.25C149.086 9.37891 151.717 9.44336 154.775 9.44336C156.451 9.44336 160.436 9.37891 166.729 9.25C166.752 11.2773 166.893 13.2812 167.15 15.2617H165.92C165.451 13.668 165.07 12.6074 164.777 12.0801C164.578 11.7168 164.332 11.4766 164.039 11.3594C163.652 11.207 162.797 11.1309 161.473 11.1309H154.371L154.248 16.791L154.195 20.2539ZM171 10.2871V9.25C173.871 9.37891 175.816 9.44336 176.836 9.44336C177.469 9.44336 179.49 9.37891 182.9 9.25V10.2871C180.791 10.6504 179.555 10.8906 179.191 11.0078C178.934 11.0898 178.746 11.2188 178.629 11.3945C178.453 11.6406 178.354 12.1504 178.33 12.9238C178.307 13.6973 178.295 18.0332 178.295 25.9316C178.295 27.4902 178.312 29.5703 178.348 32.1719H186.1C187.26 32.1719 188.016 32.1016 188.367 31.9609C188.719 31.8203 189.082 31.5098 189.457 31.0293C189.832 30.5488 190.535 29.3418 191.566 27.4082H193.061L191.654 31.3281C191.408 32.0547 191.109 33.0098 190.758 34.1934C185.906 34.0645 181.682 34 178.084 34C175.541 34 173.18 34.0645 171 34.1934V33.1562C172.793 32.8281 173.848 32.6055 174.164 32.4883C174.48 32.3594 174.691 32.1895 174.797 31.9785C174.914 31.7676 174.973 31.1523 174.973 30.1328L175.061 19.3574L175.008 12.4141C175.008 11.8164 174.92 11.4414 174.744 11.2891C174.475 11.0547 173.607 10.8086 172.143 10.5508C171.885 10.5039 171.504 10.416 171 10.2871ZM206.121 9.25V10.2871C205.711 10.3809 205.406 10.4453 205.207 10.4805C203.648 10.75 202.746 11.0078 202.5 11.2539C202.254 11.4883 202.131 12.0215 202.131 12.8535V13.4688L202.061 20.5352L202.113 30.8008C202.113 31.6211 202.23 32.1426 202.465 32.3652C202.711 32.5879 203.537 32.7812 204.943 32.9453C205.213 32.9805 205.605 33.0508 206.121 33.1562V34.1934C204.234 34.0645 202.418 34 200.672 34C198.867 34 196.887 34.0645 194.73 34.1934V33.1562C195.07 33.0625 195.328 33.0039 195.504 32.9805C197.168 32.7109 198.117 32.4648 198.352 32.2422C198.598 32.0078 198.721 31.4277 198.721 30.502L198.703 29.623L198.738 23.1719C198.738 16.5391 198.727 12.8711 198.703 12.168C198.68 11.7812 198.551 11.4824 198.316 11.2715C198.094 11.0605 197.209 10.8086 195.662 10.5156C195.451 10.4687 195.141 10.3926 194.73 10.2871V9.25C197.273 9.37891 199.26 9.44336 200.689 9.44336C202.283 9.44336 204.094 9.37891 206.121 9.25ZM199.336 7.52734H198.281C199.078 5.37109 199.816 3.32617 200.496 1.39258L202.465 1.42773C202.664 1.42773 203.191 1.41602 204.047 1.39258L204.293 1.72656C202.582 3.51953 200.93 5.45312 199.336 7.52734ZM230.977 29.9219L231.715 31.2578C229.828 32.4414 228.018 33.3145 226.283 33.877C224.549 34.4395 222.756 34.7207 220.904 34.7207C218.549 34.7207 216.41 34.1875 214.488 33.1211C212.566 32.043 211.107 30.5254 210.111 28.5684C209.127 26.5996 208.635 24.4199 208.635 22.0293C208.635 18.127 209.906 14.9336 212.449 12.4492C215.004 9.96484 218.379 8.72266 222.574 8.72266C225.152 8.72266 228.023 9.25 231.188 10.3047C231.164 11.3359 231.152 12.1094 231.152 12.625C231.152 14.125 231.24 15.7012 231.416 17.3535H229.939C229.506 15.3027 229.043 13.8906 228.551 13.1172C228.059 12.3438 227.262 11.7285 226.16 11.2715C225.059 10.8027 223.699 10.5684 222.082 10.5684C218.684 10.5684 216.123 11.7754 214.4 14.1895C213.064 16.0762 212.396 18.4434 212.396 21.291C212.396 24.6895 213.334 27.373 215.209 29.3418C217.096 31.2988 219.562 32.2773 222.609 32.2773C223.922 32.2773 225.199 32.1074 226.441 31.7676C227.684 31.4277 229.195 30.8125 230.977 29.9219ZM245.18 9.25V10.2871C244.77 10.3809 244.465 10.4453 244.266 10.4805C242.707 10.75 241.805 11.0078 241.559 11.2539C241.312 11.4883 241.189 12.0215 241.189 12.8535V13.4688L241.119 20.5352L241.172 30.8008C241.172 31.6211 241.289 32.1426 241.523 32.3652C241.77 32.5879 242.596 32.7812 244.002 32.9453C244.271 32.9805 244.664 33.0508 245.18 33.1562V34.1934C243.293 34.0645 241.477 34 239.73 34C237.926 34 235.945 34.0645 233.789 34.1934V33.1562C234.129 33.0625 234.387 33.0039 234.562 32.9805C236.227 32.7109 237.176 32.4648 237.41 32.2422C237.656 32.0078 237.779 31.4277 237.779 30.502L237.762 29.623L237.797 23.1719C237.797 16.5391 237.785 12.8711 237.762 12.168C237.738 11.7812 237.609 11.4824 237.375 11.2715C237.152 11.0605 236.268 10.8086 234.721 10.5156C234.51 10.4687 234.199 10.3926 233.789 10.2871V9.25C236.332 9.37891 238.318 9.44336 239.748 9.44336C241.342 9.44336 243.152 9.37891 245.18 9.25ZM259.207 8.82812H260.314C261.896 12.8945 263.842 17.5059 266.15 22.6621L270.246 31.6094C270.434 31.9258 270.639 32.1602 270.861 32.3125C271.014 32.418 271.875 32.6992 273.445 33.1562V34.1934C271.312 34.0645 269.742 34 268.734 34C267.703 34 265.945 34.0645 263.461 34.1934V33.1562C264.879 32.8633 265.705 32.6289 265.939 32.4531C266.174 32.2773 266.291 32.0723 266.291 31.8379C266.291 31.5918 266.168 31.1758 265.922 30.5898L264.164 26.3008C261.668 26.2773 259.852 26.2656 258.715 26.2656L253.881 26.3008L252.053 30.748C251.748 31.4629 251.596 31.9082 251.596 32.084C251.596 32.2363 251.666 32.3652 251.807 32.4707C251.959 32.5645 252.645 32.7402 253.863 32.998C253.992 33.0332 254.174 33.0859 254.408 33.1562V34.1934C252.404 34.0645 250.992 34 250.172 34C249.129 34 247.793 34.0645 246.164 34.1934V33.1562C247.23 32.9219 247.963 32.6582 248.361 32.3652C248.654 32.1426 248.959 31.7676 249.275 31.2402C249.943 30.0801 251.643 26.3477 254.373 20.043L259.207 8.82812ZM254.566 24.543C256.195 24.5898 257.361 24.6133 258.064 24.6133C258.275 24.6133 260.074 24.5898 263.461 24.543L259.014 13.9961L254.566 24.543Z" fill="white"/>
<path d="M50.3379 65.4141L50.625 65.9336C49.8913 66.3939 49.1872 66.7334 48.5127 66.9521C47.8382 67.1709 47.141 67.2803 46.4209 67.2803C45.5049 67.2803 44.6732 67.0729 43.9258 66.6582C43.1784 66.2389 42.611 65.6488 42.2236 64.8877C41.8408 64.1221 41.6494 63.2744 41.6494 62.3447C41.6494 60.8271 42.1439 59.5853 43.1328 58.6191C44.1263 57.653 45.4388 57.1699 47.0703 57.1699C48.0729 57.1699 49.1895 57.375 50.4199 57.7852C50.4108 58.1862 50.4062 58.487 50.4062 58.6875C50.4062 59.2708 50.4404 59.8838 50.5088 60.5264H49.9346C49.766 59.7288 49.5859 59.1797 49.3945 58.8789C49.2031 58.5781 48.8932 58.3389 48.4648 58.1611C48.0365 57.9788 47.5078 57.8877 46.8789 57.8877C45.5573 57.8877 44.5615 58.3571 43.8916 59.2959C43.3721 60.0296 43.1123 60.9502 43.1123 62.0576C43.1123 63.3792 43.4769 64.4229 44.2061 65.1885C44.9398 65.9495 45.8991 66.3301 47.084 66.3301C47.5944 66.3301 48.0911 66.264 48.5742 66.1318C49.0573 65.9997 49.6452 65.7604 50.3379 65.4141ZM51.7324 62.29C51.7324 60.7952 52.2132 59.5693 53.1748 58.6123C54.141 57.6507 55.3805 57.1699 56.8936 57.1699C58.3018 57.1699 59.4229 57.5938 60.2568 58.4414C61.0908 59.2891 61.5078 60.4557 61.5078 61.9414C61.5078 63.5911 61.0384 64.8945 60.0996 65.8516C59.1608 66.804 57.9258 67.2803 56.3945 67.2803C54.959 67.2803 53.8219 66.8473 52.9834 65.9814C52.1494 65.1156 51.7324 63.8851 51.7324 62.29ZM53.2295 62.085C53.2295 63.5889 53.5576 64.7191 54.2139 65.4756C54.8747 66.2275 55.7087 66.6035 56.7158 66.6035C57.3812 66.6035 57.9714 66.4281 58.4863 66.0771C59.0013 65.7262 59.391 65.2135 59.6553 64.5391C59.9196 63.86 60.0518 63.1104 60.0518 62.29C60.0518 61.2601 59.8831 60.4056 59.5459 59.7266C59.2087 59.0475 58.7917 58.5622 58.2949 58.2705C57.7982 57.9743 57.2399 57.8262 56.6201 57.8262C55.9411 57.8262 55.3327 58.0062 54.7949 58.3662C54.2572 58.7217 53.8607 59.2389 53.6055 59.918C53.3548 60.5924 53.2295 61.3148 53.2295 62.085ZM62.1572 57.7783V57.375C62.736 57.4251 63.1917 57.4502 63.5244 57.4502C63.7933 57.4502 64.2741 57.4251 64.9668 57.375L66.9082 59.8018C67.0859 60.016 68.4577 61.6771 71.0234 64.7852C71.028 64.1471 71.0303 63.6846 71.0303 63.3975C71.0303 62.7184 71.0098 61.4766 70.9688 59.6719C70.9505 58.8288 70.9277 58.3708 70.9004 58.2979C70.8776 58.2249 70.8252 58.1589 70.7432 58.0996C70.6657 58.0404 70.349 57.9583 69.793 57.8535C69.7201 57.8398 69.613 57.8148 69.4717 57.7783V57.375C70.2829 57.4251 70.9277 57.4502 71.4062 57.4502C71.8711 57.4502 72.5137 57.4251 73.334 57.375V57.7783C73.2109 57.8102 73.1198 57.8307 73.0605 57.8398C72.4499 57.9674 72.1104 58.0518 72.042 58.0928C71.9919 58.1201 71.9508 58.1611 71.9189 58.2158C71.8734 58.2887 71.8415 58.4255 71.8232 58.626C71.8187 58.7126 71.8073 59.3346 71.7891 60.4922C71.7754 61.6452 71.7686 62.7617 71.7686 63.8418C71.7686 65.1178 71.7913 66.1956 71.8369 67.0752L71.3926 67.2803L68.542 63.7393L64.8027 59.2412L64.8369 63.2812C64.8597 65.0495 64.8848 65.9928 64.9121 66.1113C64.9303 66.1934 64.9714 66.264 65.0352 66.3232C65.1354 66.4144 65.4749 66.5101 66.0537 66.6104C66.1221 66.6195 66.2246 66.64 66.3613 66.6719V67.0752C65.6641 67.0251 65.0762 67 64.5977 67C64.1966 67 63.4971 67.0251 62.499 67.0752V66.6719C62.6585 66.6354 62.7793 66.6081 62.8613 66.5898C63.4082 66.4941 63.7249 66.4053 63.8115 66.3232C63.8617 66.2822 63.8981 66.2116 63.9209 66.1113C63.9665 65.9017 63.9961 65.1087 64.0098 63.7324C64.0326 61.7819 64.0439 60.6289 64.0439 60.2734C64.0439 59.1296 64.028 58.4938 63.9961 58.3662C63.9779 58.2751 63.9186 58.1999 63.8184 58.1406C63.7181 58.0768 63.2874 57.9811 62.5264 57.8535C62.4443 57.8398 62.3213 57.8148 62.1572 57.7783ZM73.8398 57.7783V57.375C74.9017 57.4251 76.0706 57.4502 77.3467 57.4502C78.6865 57.4502 80.1562 57.4251 81.7559 57.375L81.9062 59.9385H81.4346C81.2432 59.2139 81.0996 58.7513 81.0039 58.5508C80.9401 58.4141 80.8376 58.3161 80.6963 58.2568C80.5596 58.193 80.2497 58.1611 79.7666 58.1611H76.7861C76.7588 58.7627 76.736 59.9248 76.7178 61.6475H78.5908C78.9508 61.6475 79.1833 61.627 79.2881 61.5859C79.3975 61.5449 79.4863 61.4652 79.5547 61.3467C79.6276 61.2282 79.7074 60.9593 79.7939 60.54C79.8076 60.4626 79.8327 60.3486 79.8691 60.1982H80.3271C80.2861 61.1507 80.2656 61.7705 80.2656 62.0576C80.2656 62.1488 80.2861 62.7298 80.3271 63.8008H79.8691C79.8464 63.6732 79.8304 63.5775 79.8213 63.5137C79.7256 62.9258 79.6185 62.5771 79.5 62.4678C79.3815 62.3584 79.0762 62.3037 78.584 62.3037H76.7178C76.7132 62.7594 76.7109 63.0648 76.7109 63.2197C76.7109 65.0381 76.7246 66.0156 76.752 66.1523C76.7702 66.2435 76.8203 66.3118 76.9023 66.3574C77.0072 66.4212 77.5244 66.526 78.4541 66.6719V67.0752C77.4242 67.0251 76.6836 67 76.2324 67L73.8398 67.0752V66.6719C74.0221 66.6354 74.1589 66.6104 74.25 66.5967C74.8014 66.5146 75.1273 66.4235 75.2275 66.3232C75.3324 66.223 75.3848 66.0133 75.3848 65.6943L75.4258 63.7461C75.4303 63.4453 75.4326 62.8711 75.4326 62.0234C75.4326 59.959 75.4235 58.7923 75.4053 58.5234C75.3916 58.3457 75.346 58.2249 75.2686 58.1611C75.1683 58.0745 74.8151 57.972 74.209 57.8535C74.127 57.8398 74.0039 57.8148 73.8398 57.7783ZM85.4199 61.6543H87.0742C87.7122 61.6543 88.0882 61.6383 88.2021 61.6064C88.3161 61.57 88.4072 61.4993 88.4756 61.3945C88.5485 61.2897 88.6374 60.9867 88.7422 60.4854C88.7559 60.4352 88.7764 60.3577 88.8037 60.2529H89.2549C89.2048 61.0049 89.1797 61.5837 89.1797 61.9893C89.1797 62.4085 89.2048 62.9827 89.2549 63.7119H88.8037C88.6715 63.0511 88.5895 62.682 88.5576 62.6045C88.512 62.4951 88.4323 62.4176 88.3184 62.3721C88.2044 62.3219 87.8649 62.2969 87.2998 62.2969H85.4268L85.4609 66.3164H88.3252L88.5781 66.3096C88.9701 66.3096 89.2161 66.2936 89.3164 66.2617C89.4896 66.2025 89.6423 66.1045 89.7744 65.9678C89.9066 65.8265 90.1504 65.4323 90.5059 64.7852C90.5423 64.7214 90.597 64.6279 90.6699 64.5049H91.1416C91.0869 64.6507 90.8044 65.5075 90.2939 67.0752C88.6351 67.0251 87.1198 67 85.748 67C84.791 67 83.7337 67.0251 82.5762 67.0752V66.6719L83.6836 66.4326C83.8613 66.3825 83.9707 66.3324 84.0117 66.2822C84.0801 66.1956 84.1143 66.0156 84.1143 65.7422V65.6191L84.1484 64.0127C84.153 63.7028 84.1553 63.0944 84.1553 62.1875C84.1553 60.8704 84.1507 59.9066 84.1416 59.2959C84.1325 58.6807 84.1097 58.332 84.0732 58.25C84.0459 58.1953 84.0026 58.152 83.9434 58.1201C83.8887 58.0837 83.679 58.0244 83.3145 57.9424L82.5762 57.7783V57.375C83.4329 57.4251 84.4561 57.4502 85.6455 57.4502C86.2972 57.4502 87.8467 57.4251 90.2939 57.375C90.3031 58.1634 90.3577 58.9427 90.458 59.7129H89.9795C89.7972 59.0931 89.6491 58.6807 89.5352 58.4756C89.4577 58.3343 89.362 58.2409 89.248 58.1953C89.0977 58.1361 88.765 58.1064 88.25 58.1064H85.4883L85.4404 60.3076L85.4199 61.6543ZM96.4258 57.375V57.7783C96.2663 57.8148 96.1478 57.8398 96.0703 57.8535C95.4642 57.9583 95.1133 58.0586 95.0176 58.1543C94.9219 58.2454 94.874 58.4528 94.874 58.7764V59.0156L94.8467 61.7637L94.8672 65.7559C94.8672 66.0749 94.9128 66.2777 95.0039 66.3643C95.0996 66.4508 95.4209 66.526 95.9678 66.5898C96.0726 66.6035 96.2253 66.6309 96.4258 66.6719V67.0752C95.6921 67.0251 94.9857 67 94.3066 67C93.6048 67 92.8346 67.0251 91.9961 67.0752V66.6719C92.1283 66.6354 92.2285 66.6126 92.2969 66.6035C92.944 66.4987 93.3132 66.403 93.4043 66.3164C93.5 66.2253 93.5479 65.9997 93.5479 65.6396L93.541 65.2979L93.5547 62.7891C93.5547 60.2096 93.5501 58.7832 93.541 58.5098C93.5319 58.3594 93.4818 58.2432 93.3906 58.1611C93.304 58.0791 92.96 57.9811 92.3584 57.8672C92.2764 57.849 92.1556 57.8193 91.9961 57.7783V57.375C92.985 57.4251 93.7575 57.4502 94.3135 57.4502C94.9333 57.4502 95.6374 57.4251 96.4258 57.375ZM97.5674 60.041H97.041C97.1276 59.248 97.2051 58.3594 97.2734 57.375C99.2923 57.4251 100.732 57.4502 101.594 57.4502C102.309 57.4502 103.613 57.4251 105.504 57.375C105.563 58.3913 105.632 59.2799 105.709 60.041H105.196C104.982 59.207 104.843 58.7194 104.779 58.5781C104.715 58.4323 104.622 58.3298 104.499 58.2705C104.381 58.2067 104.075 58.1748 103.583 58.1748H102.065C102.029 59.387 102.011 60.8864 102.011 62.6729C102.011 64.3317 102.029 65.4528 102.065 66.0361C102.075 66.1729 102.109 66.2663 102.168 66.3164C102.245 66.3802 102.621 66.4782 103.296 66.6104C103.36 66.6195 103.455 66.64 103.583 66.6719V67.0752C102.681 67.0251 101.876 67 101.17 67C100.5 67 99.8141 67.0251 99.1123 67.0752V66.6719C99.2718 66.6309 99.3926 66.6035 99.4746 66.5898C100.099 66.485 100.459 66.3962 100.555 66.3232C100.596 66.2868 100.625 66.2367 100.644 66.1729C100.666 66.1045 100.685 65.5986 100.698 64.6553C100.716 63.1969 100.726 62.1169 100.726 61.415C100.726 60.1891 100.716 59.109 100.698 58.1748H99.0713L98.7773 58.1816C98.5176 58.1816 98.3467 58.209 98.2646 58.2637C98.137 58.3411 98.0231 58.5052 97.9229 58.7559C97.8454 58.9473 97.7269 59.3757 97.5674 60.041ZM110.467 57.2109H110.897C111.513 58.7923 112.269 60.5856 113.167 62.5908L114.76 66.0703C114.833 66.1934 114.912 66.2845 114.999 66.3438C115.058 66.3848 115.393 66.4941 116.004 66.6719V67.0752C115.174 67.0251 114.564 67 114.172 67C113.771 67 113.087 67.0251 112.121 67.0752V66.6719C112.673 66.5579 112.994 66.4668 113.085 66.3984C113.176 66.3301 113.222 66.2503 113.222 66.1592C113.222 66.0635 113.174 65.9017 113.078 65.6738L112.395 64.0059C111.424 63.9967 110.717 63.9922 110.275 63.9922L108.396 64.0059L107.685 65.7354C107.566 66.0133 107.507 66.1865 107.507 66.2549C107.507 66.3141 107.534 66.3643 107.589 66.4053C107.648 66.4417 107.915 66.5101 108.389 66.6104C108.439 66.624 108.509 66.6445 108.601 66.6719V67.0752C107.821 67.0251 107.272 67 106.953 67C106.548 67 106.028 67.0251 105.395 67.0752V66.6719C105.809 66.5807 106.094 66.4782 106.249 66.3643C106.363 66.2777 106.481 66.1318 106.604 65.9268C106.864 65.4756 107.525 64.0241 108.587 61.5723L110.467 57.2109ZM108.662 63.3223C109.296 63.3405 109.749 63.3496 110.022 63.3496C110.104 63.3496 110.804 63.3405 112.121 63.3223L110.392 59.2207L108.662 63.3223ZM116.407 57.7783V57.375C117.615 57.4251 118.583 57.4502 119.312 57.4502C119.732 57.4502 120.124 57.4456 120.488 57.4365C120.971 57.4183 121.306 57.4092 121.493 57.4092C122.382 57.4092 123.052 57.6188 123.503 58.0381C123.95 58.4619 124.173 59.0339 124.173 59.7539C124.173 60.237 124.07 60.6654 123.865 61.0391C123.665 61.4082 123.373 61.7204 122.99 61.9756C122.712 62.1579 122.316 62.3197 121.801 62.4609L124.077 65.4277C124.36 65.7969 124.537 66.0133 124.61 66.0771C124.724 66.1729 124.872 66.2549 125.055 66.3232C125.31 66.4235 125.741 66.5397 126.347 66.6719V67.0752C125.627 67.0251 125.103 67 124.774 67C124.396 67 124.009 67.0251 123.612 67.0752C123.407 66.7334 123.129 66.305 122.778 65.79C122.427 65.2705 122.213 64.9629 122.136 64.8672C122.09 64.8125 122.047 64.7555 122.006 64.6963L120.502 62.6318C120.096 62.6227 119.686 62.5931 119.271 62.543L119.326 65.9883C119.335 66.125 119.376 66.2275 119.449 66.2959C119.559 66.387 119.9 66.485 120.475 66.5898C120.557 66.6035 120.682 66.6309 120.851 66.6719V67.0752C120.026 67.0251 119.299 67 118.67 67C117.995 67 117.241 67.0251 116.407 67.0752V66.6719L116.701 66.6104C117.353 66.4873 117.722 66.387 117.809 66.3096C117.9 66.2275 117.952 66.084 117.966 65.8789C117.975 65.7467 117.986 64.5755 118 62.3652L117.973 59.1523C117.968 58.6602 117.954 58.3776 117.932 58.3047C117.913 58.2318 117.87 58.1771 117.802 58.1406C117.578 58.0221 117.225 57.9242 116.742 57.8467C116.669 57.833 116.558 57.8102 116.407 57.7783ZM119.271 61.9619C119.745 62.012 120.112 62.0371 120.372 62.0371C121.201 62.0371 121.814 61.8525 122.211 61.4834C122.612 61.1143 122.812 60.6016 122.812 59.9453C122.812 59.3711 122.635 58.9176 122.279 58.585C121.928 58.2523 121.416 58.0859 120.741 58.0859C120.5 58.0859 120.023 58.1133 119.312 58.168L119.271 61.9619ZM131.002 57.375V57.7783C130.842 57.8148 130.724 57.8398 130.646 57.8535C130.04 57.9583 129.689 58.0586 129.594 58.1543C129.498 58.2454 129.45 58.4528 129.45 58.7764V59.0156L129.423 61.7637L129.443 65.7559C129.443 66.0749 129.489 66.2777 129.58 66.3643C129.676 66.4508 129.997 66.526 130.544 66.5898C130.649 66.6035 130.801 66.6309 131.002 66.6719V67.0752C130.268 67.0251 129.562 67 128.883 67C128.181 67 127.411 67.0251 126.572 67.0752V66.6719C126.704 66.6354 126.805 66.6126 126.873 66.6035C127.52 66.4987 127.889 66.403 127.98 66.3164C128.076 66.2253 128.124 65.9997 128.124 65.6396L128.117 65.2979L128.131 62.7891C128.131 60.2096 128.126 58.7832 128.117 58.5098C128.108 58.3594 128.058 58.2432 127.967 58.1611C127.88 58.0791 127.536 57.9811 126.935 57.8672C126.853 57.849 126.732 57.8193 126.572 57.7783V57.375C127.561 57.4251 128.334 57.4502 128.89 57.4502C129.509 57.4502 130.214 57.4251 131.002 57.375ZM136.457 57.2109H136.888C137.503 58.7923 138.259 60.5856 139.157 62.5908L140.75 66.0703C140.823 66.1934 140.903 66.2845 140.989 66.3438C141.049 66.3848 141.383 66.4941 141.994 66.6719V67.0752C141.165 67.0251 140.554 67 140.162 67C139.761 67 139.077 67.0251 138.111 67.0752V66.6719C138.663 66.5579 138.984 66.4668 139.075 66.3984C139.166 66.3301 139.212 66.2503 139.212 66.1592C139.212 66.0635 139.164 65.9017 139.068 65.6738L138.385 64.0059C137.414 63.9967 136.708 63.9922 136.266 63.9922L134.386 64.0059L133.675 65.7354C133.556 66.0133 133.497 66.1865 133.497 66.2549C133.497 66.3141 133.524 66.3643 133.579 66.4053C133.638 66.4417 133.905 66.5101 134.379 66.6104C134.429 66.624 134.5 66.6445 134.591 66.6719V67.0752C133.812 67.0251 133.262 67 132.943 67C132.538 67 132.018 67.0251 131.385 67.0752V66.6719C131.799 66.5807 132.084 66.4782 132.239 66.3643C132.353 66.2777 132.472 66.1318 132.595 65.9268C132.854 65.4756 133.515 64.0241 134.577 61.5723L136.457 57.2109ZM134.652 63.3223C135.286 63.3405 135.739 63.3496 136.013 63.3496C136.095 63.3496 136.794 63.3405 138.111 63.3223L136.382 59.2207L134.652 63.3223ZM150.826 57.2109H151.257C151.872 58.7923 152.629 60.5856 153.526 62.5908L155.119 66.0703C155.192 66.1934 155.272 66.2845 155.358 66.3438C155.418 66.3848 155.753 66.4941 156.363 66.6719V67.0752C155.534 67.0251 154.923 67 154.531 67C154.13 67 153.447 67.0251 152.48 67.0752V66.6719C153.032 66.5579 153.353 66.4668 153.444 66.3984C153.535 66.3301 153.581 66.2503 153.581 66.1592C153.581 66.0635 153.533 65.9017 153.438 65.6738L152.754 64.0059C151.783 63.9967 151.077 63.9922 150.635 63.9922L148.755 64.0059L148.044 65.7354C147.925 66.0133 147.866 66.1865 147.866 66.2549C147.866 66.3141 147.894 66.3643 147.948 66.4053C148.007 66.4417 148.274 66.5101 148.748 66.6104C148.798 66.624 148.869 66.6445 148.96 66.6719V67.0752C148.181 67.0251 147.632 67 147.312 67C146.907 67 146.387 67.0251 145.754 67.0752V66.6719C146.169 66.5807 146.453 66.4782 146.608 66.3643C146.722 66.2777 146.841 66.1318 146.964 65.9268C147.224 65.4756 147.884 64.0241 148.946 61.5723L150.826 57.2109ZM149.021 63.3223C149.655 63.3405 150.108 63.3496 150.382 63.3496C150.464 63.3496 151.163 63.3405 152.48 63.3223L150.751 59.2207L149.021 63.3223ZM156.767 57.7783V57.375C157.974 57.4251 158.943 57.4502 159.672 57.4502C160.091 57.4502 160.483 57.4456 160.848 57.4365C161.331 57.4183 161.666 57.4092 161.853 57.4092C162.741 57.4092 163.411 57.6188 163.862 58.0381C164.309 58.4619 164.532 59.0339 164.532 59.7539C164.532 60.237 164.43 60.6654 164.225 61.0391C164.024 61.4082 163.732 61.7204 163.35 61.9756C163.072 62.1579 162.675 62.3197 162.16 62.4609L164.437 65.4277C164.719 65.7969 164.897 66.0133 164.97 66.0771C165.084 66.1729 165.232 66.2549 165.414 66.3232C165.669 66.4235 166.1 66.5397 166.706 66.6719V67.0752C165.986 67.0251 165.462 67 165.134 67C164.756 67 164.368 67.0251 163.972 67.0752C163.767 66.7334 163.489 66.305 163.138 65.79C162.787 65.2705 162.573 64.9629 162.495 64.8672C162.45 64.8125 162.406 64.7555 162.365 64.6963L160.861 62.6318C160.456 62.6227 160.046 62.5931 159.631 62.543L159.686 65.9883C159.695 66.125 159.736 66.2275 159.809 66.2959C159.918 66.387 160.26 66.485 160.834 66.5898C160.916 66.6035 161.041 66.6309 161.21 66.6719V67.0752C160.385 67.0251 159.658 67 159.029 67C158.355 67 157.601 67.0251 156.767 67.0752V66.6719L157.061 66.6104C157.712 66.4873 158.081 66.387 158.168 66.3096C158.259 66.2275 158.312 66.084 158.325 65.8789C158.334 65.7467 158.346 64.5755 158.359 62.3652L158.332 59.1523C158.327 58.6602 158.314 58.3776 158.291 58.3047C158.273 58.2318 158.229 58.1771 158.161 58.1406C157.938 58.0221 157.585 57.9242 157.102 57.8467C157.029 57.833 156.917 57.8102 156.767 57.7783ZM159.631 61.9619C160.105 62.012 160.472 62.0371 160.731 62.0371C161.561 62.0371 162.174 61.8525 162.57 61.4834C162.971 61.1143 163.172 60.6016 163.172 59.9453C163.172 59.3711 162.994 58.9176 162.639 58.585C162.288 58.2523 161.775 58.0859 161.101 58.0859C160.859 58.0859 160.383 58.1133 159.672 58.168L159.631 61.9619ZM166.788 60.041H166.262C166.348 59.248 166.426 58.3594 166.494 57.375C168.513 57.4251 169.953 57.4502 170.814 57.4502C171.53 57.4502 172.833 57.4251 174.725 57.375C174.784 58.3913 174.852 59.2799 174.93 60.041H174.417C174.203 59.207 174.064 58.7194 174 58.5781C173.936 58.4323 173.843 58.3298 173.72 58.2705C173.601 58.2067 173.296 58.1748 172.804 58.1748H171.286C171.25 59.387 171.231 60.8864 171.231 62.6729C171.231 64.3317 171.25 65.4528 171.286 66.0361C171.295 66.1729 171.329 66.2663 171.389 66.3164C171.466 66.3802 171.842 66.4782 172.517 66.6104C172.58 66.6195 172.676 66.64 172.804 66.6719V67.0752C171.901 67.0251 171.097 67 170.391 67C169.721 67 169.035 67.0251 168.333 67.0752V66.6719C168.493 66.6309 168.613 66.6035 168.695 66.5898C169.32 66.485 169.68 66.3962 169.775 66.3232C169.816 66.2868 169.846 66.2367 169.864 66.1729C169.887 66.1045 169.905 65.5986 169.919 64.6553C169.937 63.1969 169.946 62.1169 169.946 61.415C169.946 60.1891 169.937 59.109 169.919 58.1748H168.292L167.998 58.1816C167.738 58.1816 167.567 58.209 167.485 58.2637C167.358 58.3411 167.244 58.5052 167.144 58.7559C167.066 58.9473 166.948 59.3757 166.788 60.041ZM178.279 61.6543H179.934C180.572 61.6543 180.948 61.6383 181.062 61.6064C181.175 61.57 181.267 61.4993 181.335 61.3945C181.408 61.2897 181.497 60.9867 181.602 60.4854C181.615 60.4352 181.636 60.3577 181.663 60.2529H182.114C182.064 61.0049 182.039 61.5837 182.039 61.9893C182.039 62.4085 182.064 62.9827 182.114 63.7119H181.663C181.531 63.0511 181.449 62.682 181.417 62.6045C181.371 62.4951 181.292 62.4176 181.178 62.3721C181.064 62.3219 180.724 62.2969 180.159 62.2969H178.286L178.32 66.3164H181.185L181.438 66.3096C181.829 66.3096 182.076 66.2936 182.176 66.2617C182.349 66.2025 182.502 66.1045 182.634 65.9678C182.766 65.8265 183.01 65.4323 183.365 64.7852C183.402 64.7214 183.456 64.6279 183.529 64.5049H184.001C183.946 64.6507 183.664 65.5075 183.153 67.0752C181.494 67.0251 179.979 67 178.607 67C177.65 67 176.593 67.0251 175.436 67.0752V66.6719L176.543 66.4326C176.721 66.3825 176.83 66.3324 176.871 66.2822C176.939 66.1956 176.974 66.0156 176.974 65.7422V65.6191L177.008 64.0127C177.012 63.7028 177.015 63.0944 177.015 62.1875C177.015 60.8704 177.01 59.9066 177.001 59.2959C176.992 58.6807 176.969 58.332 176.933 58.25C176.905 58.1953 176.862 58.152 176.803 58.1201C176.748 58.0837 176.538 58.0244 176.174 57.9424L175.436 57.7783V57.375C176.292 57.4251 177.315 57.4502 178.505 57.4502C179.157 57.4502 180.706 57.4251 183.153 57.375C183.162 58.1634 183.217 58.9427 183.317 59.7129H182.839C182.657 59.0931 182.508 58.6807 182.395 58.4756C182.317 58.3343 182.221 58.2409 182.107 58.1953C181.957 58.1361 181.624 58.1064 181.109 58.1064H178.348L178.3 60.3076L178.279 61.6543ZM191.015 59.9863H190.495C190.377 59.403 190.242 58.9769 190.092 58.708C189.941 58.4391 189.711 58.2295 189.401 58.0791C189.096 57.9242 188.752 57.8467 188.369 57.8467C187.827 57.8467 187.394 57.9971 187.07 58.2979C186.751 58.5986 186.592 58.9632 186.592 59.3916C186.592 59.7699 186.724 60.1003 186.988 60.3828C187.248 60.6654 187.882 61.0231 188.889 61.4561C189.9 61.889 190.589 62.3356 190.953 62.7959C191.313 63.2607 191.493 63.7826 191.493 64.3613C191.493 64.8809 191.356 65.3639 191.083 65.8105C190.814 66.2572 190.406 66.6149 189.859 66.8838C189.317 67.1481 188.731 67.2803 188.103 67.2803C187.674 67.2803 187.243 67.2393 186.811 67.1572C186.382 67.0752 185.867 66.9339 185.266 66.7334C185.329 66.0908 185.361 65.2386 185.361 64.1768H185.888C186.038 64.8604 186.193 65.3389 186.353 65.6123C186.517 65.8857 186.763 66.1113 187.091 66.2891C187.419 66.4622 187.779 66.5488 188.171 66.5488C188.709 66.5488 189.18 66.3984 189.586 66.0977C189.992 65.7969 190.194 65.3753 190.194 64.833C190.194 64.391 190.049 63.999 189.757 63.6572C189.461 63.32 188.818 62.9395 187.829 62.5156C186.845 62.0872 186.186 61.6771 185.854 61.2852C185.521 60.8978 185.354 60.4352 185.354 59.8975C185.354 59.4281 185.489 58.9814 185.758 58.5576C186.027 58.1292 186.421 57.792 186.94 57.5459C187.465 57.2952 188.007 57.1699 188.567 57.1699C189.242 57.1699 190.058 57.3317 191.015 57.6553C190.992 58.3206 190.98 58.7217 190.98 58.8584C190.98 59.1364 190.992 59.5124 191.015 59.9863ZM197.352 57.2109H197.782C198.397 58.7923 199.154 60.5856 200.052 62.5908L201.645 66.0703C201.717 66.1934 201.797 66.2845 201.884 66.3438C201.943 66.3848 202.278 66.4941 202.889 66.6719V67.0752C202.059 67.0251 201.449 67 201.057 67C200.656 67 199.972 67.0251 199.006 67.0752V66.6719C199.557 66.5579 199.879 66.4668 199.97 66.3984C200.061 66.3301 200.106 66.2503 200.106 66.1592C200.106 66.0635 200.059 65.9017 199.963 65.6738L199.279 64.0059C198.309 63.9967 197.602 63.9922 197.16 63.9922L195.28 64.0059L194.569 65.7354C194.451 66.0133 194.392 66.1865 194.392 66.2549C194.392 66.3141 194.419 66.3643 194.474 66.4053C194.533 66.4417 194.799 66.5101 195.273 66.6104C195.324 66.624 195.394 66.6445 195.485 66.6719V67.0752C194.706 67.0251 194.157 67 193.838 67C193.432 67 192.913 67.0251 192.279 67.0752V66.6719C192.694 66.5807 192.979 66.4782 193.134 66.3643C193.248 66.2777 193.366 66.1318 193.489 65.9268C193.749 65.4756 194.41 64.0241 195.472 61.5723L197.352 57.2109ZM195.547 63.3223C196.18 63.3405 196.634 63.3496 196.907 63.3496C196.989 63.3496 197.689 63.3405 199.006 63.3223L197.276 59.2207L195.547 63.3223ZM203.019 57.7783V57.375C203.597 57.4251 204.053 57.4502 204.386 57.4502C204.655 57.4502 205.135 57.4251 205.828 57.375L207.77 59.8018C207.947 60.016 209.319 61.6771 211.885 64.7852C211.889 64.1471 211.892 63.6846 211.892 63.3975C211.892 62.7184 211.871 61.4766 211.83 59.6719C211.812 58.8288 211.789 58.3708 211.762 58.2979C211.739 58.2249 211.687 58.1589 211.604 58.0996C211.527 58.0404 211.21 57.9583 210.654 57.8535C210.581 57.8398 210.474 57.8148 210.333 57.7783V57.375C211.144 57.4251 211.789 57.4502 212.268 57.4502C212.732 57.4502 213.375 57.4251 214.195 57.375V57.7783C214.072 57.8102 213.981 57.8307 213.922 57.8398C213.311 57.9674 212.972 58.0518 212.903 58.0928C212.853 58.1201 212.812 58.1611 212.78 58.2158C212.735 58.2887 212.703 58.4255 212.685 58.626C212.68 58.7126 212.669 59.3346 212.65 60.4922C212.637 61.6452 212.63 62.7617 212.63 63.8418C212.63 65.1178 212.653 66.1956 212.698 67.0752L212.254 67.2803L209.403 63.7393L205.664 59.2412L205.698 63.2812C205.721 65.0495 205.746 65.9928 205.773 66.1113C205.792 66.1934 205.833 66.264 205.896 66.3232C205.997 66.4144 206.336 66.5101 206.915 66.6104C206.983 66.6195 207.086 66.64 207.223 66.6719V67.0752C206.525 67.0251 205.938 67 205.459 67C205.058 67 204.358 67.0251 203.36 67.0752V66.6719C203.52 66.6354 203.641 66.6081 203.723 66.5898C204.27 66.4941 204.586 66.4053 204.673 66.3232C204.723 66.2822 204.759 66.2116 204.782 66.1113C204.828 65.9017 204.857 65.1087 204.871 63.7324C204.894 61.7819 204.905 60.6289 204.905 60.2734C204.905 59.1296 204.889 58.4938 204.857 58.3662C204.839 58.2751 204.78 58.1999 204.68 58.1406C204.579 58.0768 204.149 57.9811 203.388 57.8535C203.306 57.8398 203.183 57.8148 203.019 57.7783ZM218.939 57.2109H219.37C219.985 58.7923 220.742 60.5856 221.64 62.5908L223.232 66.0703C223.305 66.1934 223.385 66.2845 223.472 66.3438C223.531 66.3848 223.866 66.4941 224.477 66.6719V67.0752C223.647 67.0251 223.036 67 222.645 67C222.243 67 221.56 67.0251 220.594 67.0752V66.6719C221.145 66.5579 221.466 66.4668 221.558 66.3984C221.649 66.3301 221.694 66.2503 221.694 66.1592C221.694 66.0635 221.646 65.9017 221.551 65.6738L220.867 64.0059C219.896 63.9967 219.19 63.9922 218.748 63.9922L216.868 64.0059L216.157 65.7354C216.039 66.0133 215.979 66.1865 215.979 66.2549C215.979 66.3141 216.007 66.3643 216.062 66.4053C216.121 66.4417 216.387 66.5101 216.861 66.6104C216.911 66.624 216.982 66.6445 217.073 66.6719V67.0752C216.294 67.0251 215.745 67 215.426 67C215.02 67 214.501 67.0251 213.867 67.0752V66.6719C214.282 66.5807 214.567 66.4782 214.722 66.3643C214.836 66.2777 214.954 66.1318 215.077 65.9268C215.337 65.4756 215.998 64.0241 217.06 61.5723L218.939 57.2109ZM217.135 63.3223C217.768 63.3405 218.222 63.3496 218.495 63.3496C218.577 63.3496 219.277 63.3405 220.594 63.3223L218.864 59.2207L217.135 63.3223ZM224.928 57.7783V57.375C226.044 57.4251 226.801 57.4502 227.197 57.4502C227.443 57.4502 228.229 57.4251 229.556 57.375V57.7783C228.735 57.9196 228.255 58.013 228.113 58.0586C228.013 58.0905 227.94 58.1406 227.895 58.209C227.826 58.3047 227.787 58.5029 227.778 58.8037C227.769 59.1045 227.765 60.7907 227.765 63.8623C227.765 64.4684 227.771 65.2773 227.785 66.2891H230.8C231.251 66.2891 231.545 66.2617 231.682 66.207C231.818 66.1523 231.96 66.0316 232.105 65.8447C232.251 65.6579 232.525 65.1885 232.926 64.4365H233.507L232.96 65.9609C232.864 66.2435 232.748 66.6149 232.611 67.0752C230.725 67.0251 229.082 67 227.683 67C226.694 67 225.775 67.0251 224.928 67.0752V66.6719C225.625 66.5443 226.035 66.4577 226.158 66.4121C226.281 66.362 226.363 66.2959 226.404 66.2139C226.45 66.1318 226.473 65.8926 226.473 65.4961L226.507 61.3057L226.486 58.6055C226.486 58.373 226.452 58.2272 226.384 58.168C226.279 58.0768 225.942 57.9811 225.372 57.8809C225.272 57.8626 225.124 57.8285 224.928 57.7783Z" fill="white"/>
</svg>
