<svg width="183" height="23" viewBox="0 0 183 23" fill="none" xmlns="http://www.w3.org/2000/svg">
<path d="M0.5625 6.19141V5.5C2.10938 5.58594 3.79297 5.62891 5.61328 5.62891L10.8398 5.55859C12.6133 5.55859 14.0273 5.81641 15.082 6.33203C16.1445 6.83984 16.9688 7.65234 17.5547 8.76953C18.1406 9.88672 18.4336 11.1875 18.4336 12.6719C18.4336 15.4062 17.5039 17.6641 15.6445 19.4453C13.7852 21.2266 11.2891 22.1172 8.15625 22.1172C7.97656 22.1172 7.26172 22.0938 6.01172 22.0469C4.76172 22.0078 4.02734 21.9883 3.80859 21.9883C3.05078 21.9883 1.96875 22.0352 0.5625 22.1289V21.4375C1.83594 21.1953 2.54297 21.0508 2.68359 21.0039C2.83203 20.957 2.9375 20.9023 3 20.8398C3.0625 20.7773 3.10547 20.6914 3.12891 20.582C3.16797 20.418 3.19531 19.7539 3.21094 18.5898C3.25781 16.0508 3.28125 14.2031 3.28125 13.0469L3.21094 7.91406L3.22266 7.51562C3.22266 7.125 3.10938 6.875 2.88281 6.76562C2.75 6.6875 1.97656 6.49609 0.5625 6.19141ZM5.56641 20.7344C6.83203 20.8906 7.89453 20.9688 8.75391 20.9688C10.0898 20.9688 11.1914 20.7539 12.0586 20.3242C13.3008 19.6914 14.2422 18.7695 14.8828 17.5586C15.5312 16.3477 15.8555 14.8594 15.8555 13.0938C15.8555 12.1719 15.7461 11.332 15.5273 10.5742C15.3164 9.80859 15.0312 9.19922 14.6719 8.74609C14.1484 8.07422 13.4648 7.5625 12.6211 7.21094C11.7773 6.85156 10.5586 6.67188 8.96484 6.67188C8.00391 6.67188 6.87109 6.73047 5.56641 6.84766C5.51953 8.90234 5.49609 11.2305 5.49609 13.832C5.49609 16.582 5.51953 18.8828 5.56641 20.7344ZM20.6484 13.9258C20.6484 11.3633 21.4727 9.26172 23.1211 7.62109C24.7773 5.97266 26.9023 5.14844 29.4961 5.14844C31.9102 5.14844 33.832 5.875 35.2617 7.32812C36.6914 8.78125 37.4062 10.7812 37.4062 13.3281C37.4062 16.1562 36.6016 18.3906 34.9922 20.0312C33.3828 21.6641 31.2656 22.4805 28.6406 22.4805C26.1797 22.4805 24.2305 21.7383 22.793 20.2539C21.3633 18.7695 20.6484 16.6602 20.6484 13.9258ZM23.2148 13.5742C23.2148 16.1523 23.7773 18.0898 24.9023 19.3867C26.0352 20.6758 27.4648 21.3203 29.1914 21.3203C30.332 21.3203 31.3438 21.0195 32.2266 20.418C33.1094 19.8164 33.7773 18.9375 34.2305 17.7812C34.6836 16.6172 34.9102 15.332 34.9102 13.9258C34.9102 12.1602 34.6211 10.6953 34.043 9.53125C33.4648 8.36719 32.75 7.53516 31.8984 7.03516C31.0469 6.52734 30.0898 6.27344 29.0273 6.27344C27.8633 6.27344 26.8203 6.58203 25.8984 7.19922C24.9766 7.80859 24.2969 8.69531 23.8594 9.85938C23.4297 11.0156 23.2148 12.2539 23.2148 13.5742ZM54.5391 19.2812L55.0312 20.1719C53.7734 20.9609 52.5664 21.543 51.4102 21.918C50.2539 22.293 49.0586 22.4805 47.8242 22.4805C46.2539 22.4805 44.8281 22.125 43.5469 21.4141C42.2656 20.6953 41.293 19.6836 40.6289 18.3789C39.9727 17.0664 39.6445 15.6133 39.6445 14.0195C39.6445 11.418 40.4922 9.28906 42.1875 7.63281C43.8906 5.97656 46.1406 5.14844 48.9375 5.14844C50.6562 5.14844 52.5703 5.5 54.6797 6.20312C54.6641 6.89063 54.6562 7.40625 54.6562 7.75C54.6562 8.75 54.7148 9.80078 54.832 10.9023H53.8477C53.5586 9.53516 53.25 8.59375 52.9219 8.07812C52.5938 7.5625 52.0625 7.15234 51.3281 6.84766C50.5938 6.53516 49.6875 6.37891 48.6094 6.37891C46.3438 6.37891 44.6367 7.18359 43.4883 8.79297C42.5977 10.0508 42.1523 11.6289 42.1523 13.5273C42.1523 15.793 42.7773 17.582 44.0273 18.8945C45.2852 20.1992 46.9297 20.8516 48.9609 20.8516C49.8359 20.8516 50.6875 20.7383 51.5156 20.5117C52.3438 20.2852 53.3516 19.875 54.5391 19.2812ZM61.1484 12.8359H63.9844C65.0781 12.8359 65.7227 12.8086 65.918 12.7539C66.1133 12.6914 66.2695 12.5703 66.3867 12.3906C66.5117 12.2109 66.6641 11.6914 66.8438 10.832C66.8672 10.7461 66.9023 10.6133 66.9492 10.4336H67.7227C67.6367 11.7227 67.5938 12.7148 67.5938 13.4102C67.5938 14.1289 67.6367 15.1133 67.7227 16.3633H66.9492C66.7227 15.2305 66.582 14.5977 66.5273 14.4648C66.4492 14.2773 66.3125 14.1445 66.1172 14.0664C65.9219 13.9805 65.3398 13.9375 64.3711 13.9375H61.1602L61.2188 20.8281H66.1289L66.5625 20.8164C67.2344 20.8164 67.6562 20.7891 67.8281 20.7344C68.125 20.6328 68.3867 20.4648 68.6133 20.2305C68.8398 19.9883 69.2578 19.3125 69.8672 18.2031C69.9297 18.0938 70.0234 17.9336 70.1484 17.7227H70.957C70.8633 17.9727 70.3789 19.4414 69.5039 22.1289C66.6602 22.043 64.0625 22 61.7109 22C60.0703 22 58.2578 22.043 56.2734 22.1289V21.4375L58.1719 21.0273C58.4766 20.9414 58.6641 20.8555 58.7344 20.7695C58.8516 20.6211 58.9102 20.3125 58.9102 19.8438V19.6328L58.9688 16.8789C58.9766 16.3477 58.9805 15.3047 58.9805 13.75C58.9805 11.4922 58.9727 9.83984 58.957 8.79297C58.9414 7.73828 58.9023 7.14062 58.8398 7C58.793 6.90625 58.7188 6.83203 58.6172 6.77734C58.5234 6.71484 58.1641 6.61328 57.5391 6.47266L56.2734 6.19141V5.5C57.7422 5.58594 59.4961 5.62891 61.5352 5.62891C62.6523 5.62891 65.3086 5.58594 69.5039 5.5C69.5195 6.85156 69.6133 8.1875 69.7852 9.50781H68.9648C68.6523 8.44531 68.3984 7.73828 68.2031 7.38672C68.0703 7.14453 67.9062 6.98438 67.7109 6.90625C67.4531 6.80469 66.8828 6.75391 66 6.75391H61.2656L61.1836 10.5273L61.1484 12.8359ZM78.4922 6.19141V5.5C80.0391 5.58594 81.7227 5.62891 83.543 5.62891L88.7695 5.55859C90.543 5.55859 91.957 5.81641 93.0117 6.33203C94.0742 6.83984 94.8984 7.65234 95.4844 8.76953C96.0703 9.88672 96.3633 11.1875 96.3633 12.6719C96.3633 15.4062 95.4336 17.6641 93.5742 19.4453C91.7148 21.2266 89.2188 22.1172 86.0859 22.1172C85.9062 22.1172 85.1914 22.0938 83.9414 22.0469C82.6914 22.0078 81.957 21.9883 81.7383 21.9883C80.9805 21.9883 79.8984 22.0352 78.4922 22.1289V21.4375C79.7656 21.1953 80.4727 21.0508 80.6133 21.0039C80.7617 20.957 80.8672 20.9023 80.9297 20.8398C80.9922 20.7773 81.0352 20.6914 81.0586 20.582C81.0977 20.418 81.125 19.7539 81.1406 18.5898C81.1875 16.0508 81.2109 14.2031 81.2109 13.0469L81.1406 7.91406L81.1523 7.51562C81.1523 7.125 81.0391 6.875 80.8125 6.76562C80.6797 6.6875 79.9062 6.49609 78.4922 6.19141ZM83.4961 20.7344C84.7617 20.8906 85.8242 20.9688 86.6836 20.9688C88.0195 20.9688 89.1211 20.7539 89.9883 20.3242C91.2305 19.6914 92.1719 18.7695 92.8125 17.5586C93.4609 16.3477 93.7852 14.8594 93.7852 13.0938C93.7852 12.1719 93.6758 11.332 93.457 10.5742C93.2461 9.80859 92.9609 9.19922 92.6016 8.74609C92.0781 8.07422 91.3945 7.5625 90.5508 7.21094C89.707 6.85156 88.4883 6.67188 86.8945 6.67188C85.9336 6.67188 84.8008 6.73047 83.4961 6.84766C83.4492 8.90234 83.4258 11.2305 83.4258 13.832C83.4258 16.582 83.4492 18.8828 83.4961 20.7344ZM102.797 12.8359H105.633C106.727 12.8359 107.371 12.8086 107.566 12.7539C107.762 12.6914 107.918 12.5703 108.035 12.3906C108.16 12.2109 108.312 11.6914 108.492 10.832C108.516 10.7461 108.551 10.6133 108.598 10.4336H109.371C109.285 11.7227 109.242 12.7148 109.242 13.4102C109.242 14.1289 109.285 15.1133 109.371 16.3633H108.598C108.371 15.2305 108.23 14.5977 108.176 14.4648C108.098 14.2773 107.961 14.1445 107.766 14.0664C107.57 13.9805 106.988 13.9375 106.02 13.9375H102.809L102.867 20.8281H107.777L108.211 20.8164C108.883 20.8164 109.305 20.7891 109.477 20.7344C109.773 20.6328 110.035 20.4648 110.262 20.2305C110.488 19.9883 110.906 19.3125 111.516 18.2031C111.578 18.0938 111.672 17.9336 111.797 17.7227H112.605C112.512 17.9727 112.027 19.4414 111.152 22.1289C108.309 22.043 105.711 22 103.359 22C101.719 22 99.9062 22.043 97.9219 22.1289V21.4375L99.8203 21.0273C100.125 20.9414 100.312 20.8555 100.383 20.7695C100.5 20.6211 100.559 20.3125 100.559 19.8438V19.6328L100.617 16.8789C100.625 16.3477 100.629 15.3047 100.629 13.75C100.629 11.4922 100.621 9.83984 100.605 8.79297C100.59 7.73828 100.551 7.14062 100.488 7C100.441 6.90625 100.367 6.83203 100.266 6.77734C100.172 6.71484 99.8125 6.61328 99.1875 6.47266L97.9219 6.19141V5.5C99.3906 5.58594 101.145 5.62891 103.184 5.62891C104.301 5.62891 106.957 5.58594 111.152 5.5C111.168 6.85156 111.262 8.1875 111.434 9.50781H110.613C110.301 8.44531 110.047 7.73828 109.852 7.38672C109.719 7.14453 109.555 6.98438 109.359 6.90625C109.102 6.80469 108.531 6.75391 107.648 6.75391H102.914L102.832 10.5273L102.797 12.8359ZM114 6.19141V5.5C115.914 5.58594 117.211 5.62891 117.891 5.62891C118.312 5.62891 119.66 5.58594 121.934 5.5V6.19141C120.527 6.43359 119.703 6.59375 119.461 6.67188C119.289 6.72656 119.164 6.8125 119.086 6.92969C118.969 7.09375 118.902 7.43359 118.887 7.94922C118.871 8.46484 118.863 11.3555 118.863 16.6211C118.863 17.6602 118.875 19.0469 118.898 20.7812H124.066C124.84 20.7812 125.344 20.7344 125.578 20.6406C125.812 20.5469 126.055 20.3398 126.305 20.0195C126.555 19.6992 127.023 18.8945 127.711 17.6055H128.707L127.77 20.2188C127.605 20.7031 127.406 21.3398 127.172 22.1289C123.938 22.043 121.121 22 118.723 22C117.027 22 115.453 22.043 114 22.1289V21.4375C115.195 21.2188 115.898 21.0703 116.109 20.9922C116.32 20.9062 116.461 20.793 116.531 20.6523C116.609 20.5117 116.648 20.1016 116.648 19.4219L116.707 12.2383L116.672 7.60938C116.672 7.21094 116.613 6.96094 116.496 6.85938C116.316 6.70313 115.738 6.53906 114.762 6.36719C114.59 6.33594 114.336 6.27734 114 6.19141ZM137.414 5.5V6.19141C137.141 6.25391 136.938 6.29688 136.805 6.32031C135.766 6.5 135.164 6.67188 135 6.83594C134.836 6.99219 134.754 7.34766 134.754 7.90234V8.3125L134.707 13.0234L134.742 19.8672C134.742 20.4141 134.82 20.7617 134.977 20.9102C135.141 21.0586 135.691 21.1875 136.629 21.2969C136.809 21.3203 137.07 21.3672 137.414 21.4375V22.1289C136.156 22.043 134.945 22 133.781 22C132.578 22 131.258 22.043 129.82 22.1289V21.4375C130.047 21.375 130.219 21.3359 130.336 21.3203C131.445 21.1406 132.078 20.9766 132.234 20.8281C132.398 20.6719 132.48 20.2852 132.48 19.668L132.469 19.082L132.492 14.7812C132.492 10.3594 132.484 7.91406 132.469 7.44531C132.453 7.1875 132.367 6.98828 132.211 6.84766C132.062 6.70703 131.473 6.53906 130.441 6.34375C130.301 6.3125 130.094 6.26172 129.82 6.19141V5.5C131.516 5.58594 132.84 5.62891 133.793 5.62891C134.855 5.62891 136.062 5.58594 137.414 5.5ZM132.891 4.35156H132.188C132.719 2.91406 133.211 1.55078 133.664 0.261719L134.977 0.285156C135.109 0.285156 135.461 0.277344 136.031 0.261719L136.195 0.484375C135.055 1.67969 133.953 2.96875 132.891 4.35156ZM153.984 19.2812L154.477 20.1719C153.219 20.9609 152.012 21.543 150.855 21.918C149.699 22.293 148.504 22.4805 147.27 22.4805C145.699 22.4805 144.273 22.125 142.992 21.4141C141.711 20.6953 140.738 19.6836 140.074 18.3789C139.418 17.0664 139.09 15.6133 139.09 14.0195C139.09 11.418 139.938 9.28906 141.633 7.63281C143.336 5.97656 145.586 5.14844 148.383 5.14844C150.102 5.14844 152.016 5.5 154.125 6.20312C154.109 6.89063 154.102 7.40625 154.102 7.75C154.102 8.75 154.16 9.80078 154.277 10.9023H153.293C153.004 9.53516 152.695 8.59375 152.367 8.07812C152.039 7.5625 151.508 7.15234 150.773 6.84766C150.039 6.53516 149.133 6.37891 148.055 6.37891C145.789 6.37891 144.082 7.18359 142.934 8.79297C142.043 10.0508 141.598 11.6289 141.598 13.5273C141.598 15.793 142.223 17.582 143.473 18.8945C144.73 20.1992 146.375 20.8516 148.406 20.8516C149.281 20.8516 150.133 20.7383 150.961 20.5117C151.789 20.2852 152.797 19.875 153.984 19.2812ZM163.453 5.5V6.19141C163.18 6.25391 162.977 6.29688 162.844 6.32031C161.805 6.5 161.203 6.67188 161.039 6.83594C160.875 6.99219 160.793 7.34766 160.793 7.90234V8.3125L160.746 13.0234L160.781 19.8672C160.781 20.4141 160.859 20.7617 161.016 20.9102C161.18 21.0586 161.73 21.1875 162.668 21.2969C162.848 21.3203 163.109 21.3672 163.453 21.4375V22.1289C162.195 22.043 160.984 22 159.82 22C158.617 22 157.297 22.043 155.859 22.1289V21.4375C156.086 21.375 156.258 21.3359 156.375 21.3203C157.484 21.1406 158.117 20.9766 158.273 20.8281C158.438 20.6719 158.52 20.2852 158.52 19.668L158.508 19.082L158.531 14.7812C158.531 10.3594 158.523 7.91406 158.508 7.44531C158.492 7.1875 158.406 6.98828 158.25 6.84766C158.102 6.70703 157.512 6.53906 156.48 6.34375C156.34 6.3125 156.133 6.26172 155.859 6.19141V5.5C157.555 5.58594 158.879 5.62891 159.832 5.62891C160.895 5.62891 162.102 5.58594 163.453 5.5ZM172.805 5.21875H173.543C174.598 7.92969 175.895 11.0039 177.434 14.4414L180.164 20.4062C180.289 20.6172 180.426 20.7734 180.574 20.875C180.676 20.9453 181.25 21.1328 182.297 21.4375V22.1289C180.875 22.043 179.828 22 179.156 22C178.469 22 177.297 22.043 175.641 22.1289V21.4375C176.586 21.2422 177.137 21.0859 177.293 20.9688C177.449 20.8516 177.527 20.7148 177.527 20.5586C177.527 20.3945 177.445 20.1172 177.281 19.7266L176.109 16.8672C174.445 16.8516 173.234 16.8438 172.477 16.8438L169.254 16.8672L168.035 19.832C167.832 20.3086 167.73 20.6055 167.73 20.7227C167.73 20.8242 167.777 20.9102 167.871 20.9805C167.973 21.043 168.43 21.1602 169.242 21.332C169.328 21.3555 169.449 21.3906 169.605 21.4375V22.1289C168.27 22.043 167.328 22 166.781 22C166.086 22 165.195 22.043 164.109 22.1289V21.4375C164.82 21.2812 165.309 21.1055 165.574 20.9102C165.77 20.7617 165.973 20.5117 166.184 20.1602C166.629 19.3867 167.762 16.8984 169.582 12.6953L172.805 5.21875ZM169.711 15.6953C170.797 15.7266 171.574 15.7422 172.043 15.7422C172.184 15.7422 173.383 15.7266 175.641 15.6953L172.676 8.66406L169.711 15.6953Z" fill="black"/>
</svg>
